# xmcd
#
# Track frame offsets: 
#        183
#        12643
#        27163
#        38625
#        51405
#        63893
#        75653
#        87603
#        101015
#        112915
#        126688
#        139008
#        152048
#        164125
#        177148
#        188805
#        200655
#
# Disc length: 2816 seconds
#
# Revision: 0
# Processed by: cddbd v1.5.2PL0 Copyright (c) Steve Scherf et al.
# Submitted via: ExactAudioCopy v0.99pb4
#
DISCID=f00afe11
DTITLE=Roy Milton - Roy Milton and his Solid Senders
DYEAR=1982
DGENRE=Blues
TTITLE0=Burma Road Blues (part 1)
TTITLE1=Burma Road Blues (part 2)
TTITLE2=Red Light
TTITLE3=It Never Should Have Been This Way
TTITLE4=Them There Eyes
TTITLE5=When I Grow Too Old To Dream
TTITLE6=My Blue Heaven
TTITLE7=I've Had My Moments
TTITLE8=Hop, Skip, and Jump
TTITLE9=Everything I Do Is Wrong
TTITLE10=Sympatetic Blues
TTITLE11=My Sweetheart
TTITLE12=Junior Jives
TTITLE13=Where There Is No Love
TTITLE14=Playboy Blues
TTITLE15=Cryin' and Singin' The Blues
TTITLE16=Short, Sweet And Snappy
EXTD=
EXTT0=
EXTT1=
EXTT2=
EXTT3=
EXTT4=
EXTT5=
EXTT6=
EXTT7=
EXTT8=
EXTT9=
EXTT10=
EXTT11=
EXTT12=
EXTT13=
EXTT14=
EXTT15=
EXTT16=
PLAYORDER=
